# xmcd
#
# Track frame offsets: 
#        150
#        19203
#        31697
#        53120
#        75227
#
# Disc length: 1265 seconds
#
# Revision: 0
# Processed by: cddbd v1.5.2PL0 Copyright (c) Steve Scherf et al.
# Submitted via: ExactAudioCopyFreeDBPlugin 1.0
#
DISCID=2a04ef05
DTITLE=Low Key In A Basement - Low Key In A Basement
DYEAR=2014
DGENRE=Blues
TTITLE0=Child And Father
TTITLE1=Running Off
TTITLE2=My First Love
TTITLE3=Walk With Me
TTITLE4=Life Of Light
EXTD=
EXTT0=
EXTT1=
EXTT2=
EXTT3=
EXTT4=
PLAYORDER=
